<svg width="32" height="30" viewBox="0 0 32 30" fill="none" xmlns="http://www.w3.org/2000/svg">
  <path fill-rule="evenodd" clip-rule="evenodd" d="M27.988 24H18.008C18.008 24.5339 18.2214 25.0457 18.6008 25.4213C18.9802 25.797 19.4941 26.0053 20.028 26H23.988C24.7025 25.9964 25.3647 26.3743 25.725 26.9913C26.0854 27.6084 26.0892 28.3708 25.735 28.9913C25.3809 29.6119 24.7225 29.9964 24.008 30H8.00799C6.90343 30 6.00799 29.1046 6.00799 28C6.01455 26.8982 6.90615 26.0066 8.00799 26H11.94C12.4739 26.0053 12.9877 25.797 13.3671 25.4213C13.7466 25.0457 13.96 24.5339 13.96 24H4.014C1.80304 23.9989 0.00880834 22.211 0 20V4.00002C-6.51263e-06 2.93673 0.423342 1.91718 1.17652 1.16664C1.92969 0.416086 2.95071 -0.003697 4.014 2.4535e-05H27.98C30.1942 -0.00440054 31.9934 1.78582 32 4.00002V20.02C31.989 22.226 30.194 24.0067 27.988 24ZM27.988 3.99997H4.008C4.008 3.99997 4.02 20 4.022 20H28.008L27.988 3.99997Z" fill="#342EAD"></path>
</svg>